# xmcd CD database file
#
# Track frame offsets:
#	150
#	9575
#	20425
#	29850
#
# Disc length: 649 seconds
#
# Revision: 0
# Processed by: cddbd v1.5.2PL0 Copyright (c) Steve Scherf et al.
# Submitted via: CDex 1.77
#
DISCID=2b028704
DTITLE=Laura Cole - SIren's Song
DYEAR=2004
DGENRE=New Age
TTITLE0=Road to Lisdoonvarna
TTITLE1=Packington's Pound
TTITLE2=Planxty Burke
TTITLE3=The Foggy Dew
EXTD=YEAR: 2004
EXTT0=
EXTT1=
EXTT2=
EXTT3=
PLAYORDER=
